<svg width="18" height="19" viewBox="0 0 18 19" fill="none" xmlns="http://www.w3.org/2000/svg">
<path d="M17.0001 14.3425V8.79451C17.0001 8.26017 16.9997 7.99286 16.9347 7.74422C16.8771 7.52387 16.7826 7.31535 16.6547 7.12693C16.5104 6.9143 16.3097 6.73797 15.9075 6.38611L11.1075 2.18611C10.3609 1.53283 9.98763 1.20635 9.5675 1.08211C9.19731 0.972631 8.80273 0.972631 8.43254 1.08211C8.01273 1.20626 7.63997 1.53242 6.89448 2.18472L2.0929 6.38611C1.69076 6.73798 1.49016 6.9143 1.34583 7.12693C1.21791 7.31536 1.12267 7.52387 1.06509 7.74422C1.00012 7.99286 1.00012 8.26017 1.00012 8.79451V14.3425C1.00012 15.2743 1.00012 15.7401 1.15236 16.1076C1.35535 16.5977 1.74444 16.9875 2.2345 17.1905C2.60204 17.3427 3.06798 17.3427 3.99986 17.3427C4.93175 17.3427 5.3982 17.3427 5.76575 17.1905C6.2558 16.9875 6.64479 16.5978 6.84778 16.1077C7.00002 15.7402 7.00012 15.2742 7.00012 14.3424V13.3424C7.00012 12.2378 7.89555 11.3424 9.00012 11.3424C10.1047 11.3424 11.0001 12.2378 11.0001 13.3424V14.3424C11.0001 15.2742 11.0001 15.7402 11.1524 16.1077C11.3554 16.5978 11.7444 16.9875 12.2345 17.1905C12.602 17.3427 13.068 17.3427 13.9999 17.3427C14.9317 17.3427 15.3982 17.3427 15.7657 17.1905C16.2558 16.9875 16.6448 16.5977 16.8478 16.1076C17 15.7401 17.0001 15.2743 17.0001 14.3425Z" stroke="white" stroke-width="2" stroke-linecap="round" stroke-linejoin="round"/>
</svg>
