<svg width="13" height="18" viewBox="0 0 13 18" fill="none" xmlns="http://www.w3.org/2000/svg">
<path d="M0 1C0 0.447715 0.447715 0 1 0H5.64844C6.92969 0 8.01172 0.195312 8.89453 0.585938C9.78516 0.976562 10.4609 1.55469 10.9219 2.32031C11.3906 3.07812 11.625 4.01172 11.625 5.12109C11.625 5.90234 11.4648 6.61719 11.1445 7.26562C10.832 7.90625 10.3789 8.45312 9.78516 8.90625C9.19922 9.35156 8.49609 9.68359 7.67578 9.90234L7.39266 10.0124C7.16155 10.1023 6.91574 10.1484 6.66777 10.1484H6.2642H2.26172C1.96939 10.1484 1.73138 9.91344 1.72766 9.62114L1.71795 8.85933C1.71409 8.55631 1.95867 8.30859 2.26172 8.30859H5.71875C6.53125 8.30859 7.20703 8.16797 7.74609 7.88672C8.28516 7.59766 8.69141 7.21094 8.96484 6.72656C9.23828 6.24219 9.375 5.70703 9.375 5.12109C9.375 4.46484 9.24609 3.89062 8.98828 3.39844C8.73047 2.90625 8.32422 2.52734 7.76953 2.26172C7.22266 1.98828 6.51562 1.85156 5.64844 1.85156H3.26172C2.70943 1.85156 2.26172 2.29928 2.26172 2.85156V8.30859V10.1484V15.9316C2.26172 16.5562 1.75542 17.0625 1.13086 17.0625C0.506303 17.0625 0 16.5562 0 15.9316V1ZM10.684 17.0625C10.246 17.0625 9.84347 16.8216 9.63645 16.4357L6.2642 10.1484C6.06463 9.77634 6.33283 9.32559 6.75507 9.32349L7.56654 9.31946C7.9453 9.31757 8.29563 9.52011 8.483 9.84928L11.9907 16.0118C12.0099 16.0455 12.0263 16.0808 12.0396 16.1172C12.2081 16.5761 11.8685 17.0625 11.3798 17.0625H10.684Z" fill="white"/>
</svg>
